<svg width="6" height="5" viewBox="0 0 6 5" fill="none" xmlns="http://www.w3.org/2000/svg">
<path d="M5.63623 2.70431L3.85571 4.65007C3.77429 4.74174 3.64986 4.78256 3.53005 4.75579C3.41091 4.72903 3.31493 4.63937 3.27919 4.52094C3.24345 4.4025 3.27323 4.27404 3.35796 4.18438L4.39913 3.04689L1.09941 3.04689C0.976956 3.0489 0.863771 2.984 0.802214 2.87694C0.739995 2.77055 0.739995 2.63807 0.802214 2.53168C0.863771 2.42462 0.976956 2.35972 1.09941 2.36173L4.39913 2.36173L3.35796 1.22425C3.27323 1.13459 3.24345 1.00612 3.27919 0.887686C3.31493 0.769254 3.41091 0.679594 3.53005 0.652829C3.64986 0.626065 3.77429 0.666881 3.85571 0.758548L5.63623 2.70431Z" fill="#8F96A1"/>
</svg>
