<svg width="48" height="49" viewBox="0 0 48 49" fill="none" xmlns="http://www.w3.org/2000/svg">
<path d="M44.4077 19.5016C42.2367 10.2144 33.9035 3.29748 23.9547 3.29748C22.0736 3.29748 20.2502 3.54477 18.5153 4.00862L18.5211 4.00469C16.9074 4.4363 15.3721 5.05469 13.939 5.83469C7.55571 9.30407 3.17196 15.9866 2.95882 23.7112L1.96763 21.6602C1.82344 21.3619 1.46469 21.2369 1.16633 21.3811C0.867972 21.5253 0.742995 21.884 0.887183 22.1824L2.94585 26.4422C3.04038 26.6378 3.23327 26.767 3.45013 26.7801C3.66699 26.7931 3.87395 26.6878 3.99119 26.5049L6.54446 22.5218C6.72328 22.2428 6.6421 21.8717 6.36312 21.6929C6.08415 21.5141 5.71303 21.5953 5.5342 21.8742L4.16713 24.0069C4.26791 16.6318 8.42386 10.1849 14.5515 6.86789C17.349 5.35585 20.5516 4.49748 23.9547 4.49748C33.2369 4.49748 41.0276 10.8834 43.173 19.5016L44.4077 19.5016Z" fill="url(#paint0_linear_1_29254)"/>
<path d="M44.8699 22.3197C44.7664 22.1288 44.5677 22.0087 44.3504 22.0058C44.1332 22.0029 43.9314 22.1177 43.8228 22.3059L41.4581 26.4037C41.2925 26.6908 41.3909 27.0577 41.678 27.2233C41.965 27.3889 42.3319 27.2905 42.4975 27.0035L43.751 24.8312C43.6477 28.766 42.3967 32.4149 40.3205 35.4556C38.3581 38.3255 35.6577 40.6575 32.4843 42.1716L32.462 42.19C29.8844 43.4181 26.9995 44.1056 23.954 44.1056C14.6921 44.1056 6.91518 37.7475 4.74981 29.158L3.51424 29.158C5.70578 38.4167 14.0254 45.3056 23.954 45.3056C31.1825 45.3056 37.5582 41.654 41.3371 36.0949C43.5085 32.9047 44.8216 29.0909 44.9547 24.9937L46.0702 27.0509C46.2281 27.3422 46.5923 27.4503 46.8836 27.2923C47.1749 27.1344 47.283 26.7702 47.1251 26.4789L44.8699 22.3197Z" fill="url(#paint1_linear_1_29254)"/>
<path fill-rule="evenodd" clip-rule="evenodd" d="M24.4479 11.6242C24.1703 11.4659 23.8296 11.4659 23.552 11.6242L13.1095 17.5785C12.8273 17.7394 12.6531 18.0393 12.6531 18.3642V30.2318C12.6531 30.5566 12.8273 30.8565 13.1095 31.0174L23.552 36.9717C23.8296 37.13 24.1703 37.13 24.4479 36.9717L34.8904 31.0174C35.1726 30.8565 35.3468 30.5566 35.3468 30.2318V18.3642C35.3468 18.0393 35.1726 17.7394 34.8904 17.5785L24.4479 11.6242ZM23.0566 10.7555C23.6413 10.4221 24.3586 10.4221 24.9433 10.7555L35.3857 16.7098C35.9799 17.0486 36.3468 17.6801 36.3468 18.3642V30.2318C36.3468 30.9158 35.9799 31.5473 35.3857 31.8861L24.9433 37.8404C24.3586 38.1738 23.6413 38.1738 23.0566 37.8404L12.6142 31.8861C12.0199 31.5473 11.6531 30.9158 11.6531 30.2318V18.3642C11.6531 17.6801 12.0199 17.0486 12.6142 16.7098L23.0566 10.7555Z" fill="url(#paint2_linear_1_29254)"/>
<path fill-rule="evenodd" clip-rule="evenodd" d="M24 40.9201C33.1803 40.9201 40.6224 33.478 40.6224 24.2978C40.6224 15.1175 33.1803 7.67542 24 7.67542C14.8198 7.67542 7.37769 15.1175 7.37769 24.2978C7.37769 33.478 14.8198 40.9201 24 40.9201ZM22.9629 9.40931C23.6057 9.04276 24.3943 9.04276 25.0371 9.40931L36.5183 15.9558C37.1716 16.3283 37.5749 17.0227 37.5749 17.7747V30.8228C37.5749 31.5748 37.1716 32.2691 36.5183 32.6417L25.0371 39.1882C24.3943 39.5547 23.6057 39.5547 22.9629 39.1882L11.4817 32.6417C10.8284 32.2691 10.425 31.5748 10.425 30.8228V17.7747C10.425 17.0227 10.8284 16.3283 11.4817 15.9558L22.9629 9.40931Z" fill="#13E5BF" fill-opacity="0.1"/>
<path fill-rule="evenodd" clip-rule="evenodd" d="M26.1934 15.0992L24.6844 15.9557V23.2316L25.5083 23.6996V18.1587L28.3377 19.765L28.3403 19.7636L28.8897 20.0748L29.3484 19.8161V19.3788L25.5083 17.2021V16.4447L26.1934 16.0561L30.1705 18.3139V20.3233L28.2611 21.4006L28.1971 21.369C28.0806 21.3118 27.9602 21.2824 27.8394 21.2824C27.3847 21.2824 27.0153 21.6569 27.0153 22.1172C27.0153 22.5772 27.3847 22.9517 27.8394 22.9517C28.2609 22.9517 28.611 22.6293 28.6544 22.2023L28.6615 22.1303L30.5883 21.0426L32.3754 22.0575V26.5457L30.5863 27.5602L23.3156 23.4319V15.9559L21.8064 15.0992L17.0058 17.8249V20.3119L14.8005 21.5621V27.0292L17.0058 28.2813V30.7726L21.8064 33.4982L23.3156 32.6415V25.3498L22.4915 24.882V30.4387L19.1102 28.5224L18.6516 28.7811V29.2184L22.4915 31.3953V32.1525L21.8064 32.5414L17.8297 30.2836V28.2739L19.7389 27.197L19.803 27.2284C19.9197 27.2859 20.0398 27.3148 20.1606 27.3148C20.6151 27.3148 20.9847 26.9405 20.9847 26.4803C20.9847 26.02 20.6151 25.6457 20.1606 25.6457C19.7393 25.6457 19.3892 25.9679 19.346 26.3953L19.3385 26.4673L17.4117 27.5547L15.6246 26.5402V22.0517L17.4137 21.0372L24.6844 25.1656V32.6415L26.1934 33.4982L30.9944 30.7726V28.2854L33.1995 27.0351V21.5685L30.9944 20.3168V17.8249L26.1934 15.0992ZM17.8296 18.3138L21.8063 16.0561L22.4914 16.4451V17.2019L17.8296 19.8446V18.3138ZM22.4915 18.1583L18.2572 20.5593L22.4915 22.9636V18.1583ZM25.5083 25.6336L29.7429 28.0385L25.5083 30.4393V25.6336ZM25.5083 31.3957V32.1524L26.1934 32.5413L30.1705 30.2835V28.7527L25.5083 31.3957Z" fill="url(#paint3_linear_1_29254)"/>
<defs>
<linearGradient id="paint0_linear_1_29254" x1="22.6175" y1="30.1415" x2="22.6175" y2="3.29748" gradientUnits="userSpaceOnUse">
<stop stop-color="#13E5BF"/>
<stop offset="1" stop-color="#01C38D"/>
</linearGradient>
<linearGradient id="paint1_linear_1_29254" x1="25.356" y1="48.6397" x2="25.356" y2="22.0057" gradientUnits="userSpaceOnUse">
<stop stop-color="#13E5BF"/>
<stop offset="1" stop-color="#01C38D"/>
</linearGradient>
<linearGradient id="paint2_linear_1_29254" x1="39.8804" y1="24.298" x2="11.6531" y2="24.298" gradientUnits="userSpaceOnUse">
<stop stop-color="#13E5BF"/>
<stop offset="1" stop-color="#01C38D"/>
</linearGradient>
<linearGradient id="paint3_linear_1_29254" x1="14.8005" y1="15.0992" x2="14.8005" y2="33.4982" gradientUnits="userSpaceOnUse">
<stop stop-color="#13E5BF"/>
<stop offset="1" stop-color="#01C38D"/>
</linearGradient>
</defs>
</svg>
