<svg width="48" height="49" viewBox="0 0 48 49" fill="none" xmlns="http://www.w3.org/2000/svg">
<path fill-rule="evenodd" clip-rule="evenodd" d="M18.9792 6.99609H10.3874C9.93605 6.99609 9.50933 7.18986 9.22669 7.52353L2.32531 16.2398C2.09283 16.5144 1.98659 17.4483 2.00146 17.7783H16.3274L18.9792 6.99609Z" fill="#13E5BF" fill-opacity="0.2"/>
<path fill-rule="evenodd" clip-rule="evenodd" d="M28.1502 6.99609H36.742C37.1933 6.99609 37.6201 7.18986 37.9027 7.52353L44.8041 16.2398C45.0366 16.5144 45.1428 17.4483 45.1279 17.7783H30.802L28.1502 6.99609Z" fill="#13E5BF" fill-opacity="0.2"/>
<path fill-rule="evenodd" clip-rule="evenodd" d="M22.7244 41.3108C22.9544 41.5539 23.2535 41.6935 23.5646 41.7392L16.3764 17.1797H2.59912C2.61303 17.4942 2.73662 17.8044 2.97152 18.0515L22.7244 41.3108Z" fill="#13E5BF" fill-opacity="0.2"/>
<path fill-rule="evenodd" clip-rule="evenodd" d="M24.405 41.3108C24.175 41.5539 23.8759 41.6935 23.5648 41.7392L30.753 17.1797H44.5303C44.5164 17.4942 44.3928 17.8044 44.1579 18.0515L24.405 41.3108Z" fill="#13E5BF" fill-opacity="0.2"/>
<path fill-rule="evenodd" clip-rule="evenodd" d="M44.7569 18.3777C45.2276 17.8186 45.3119 16.5724 44.8752 15.9817L37.2932 6.37424C37.0242 6.01043 36.6171 5.79846 36.1869 5.79846H10.9391C10.5093 5.79846 10.1021 6.01043 9.83315 6.37424L2.36954 15.9817C1.93243 16.5724 1.89836 17.8186 2.3695 18.3777L22.5162 42.4373C23.0785 43.1039 24.0479 43.1039 24.6102 42.4373L44.7569 18.3777ZM36.3299 7.08648L36.3411 7.10163L43.8218 16.5807H31.1305L28.5974 6.99649H36.1869C36.2145 6.99649 36.273 7.0095 36.3299 7.08648ZM27.3583 6.99649L29.8913 16.5807H17.235L19.768 6.99649H27.3583ZM18.5288 6.99649L15.9958 16.5807H3.42125L10.788 7.09795L10.7965 7.08648C10.8535 7.00934 10.9121 6.99649 10.9391 6.99649H18.5288ZM3.43048 17.7787L22.2865 40.2969L15.8345 17.7787H3.43048ZM24.8397 40.2971L43.6959 17.7787H31.2918L24.8397 40.2971ZM23.5631 40.4031L17.0807 17.7787H30.0455L23.5631 40.4031Z" fill="url(#paint0_linear_1_29289)"/>
<defs>
<linearGradient id="paint0_linear_1_29289" x1="51.3325" y1="24.3678" x2="2.02881" y2="24.3678" gradientUnits="userSpaceOnUse">
<stop stop-color="#13E5BF"/>
<stop offset="1" stop-color="#01C38D"/>
</linearGradient>
</defs>
</svg>
