<svg width="48" height="49" viewBox="0 0 48 49" fill="none" xmlns="http://www.w3.org/2000/svg">
<path d="M31.186 16.697C34.1058 18.8924 36.0004 22.484 36.0004 26.5474C36.0004 30.9671 33.931 34.3653 30.5719 36.4837C29.0166 37.474 26.7899 38.4648 24.7654 38.6632C26.909 38.4295 28.7214 37.0726 29.5942 35.1931C29.8023 34.7574 29.9608 34.2226 29.9806 33.6977C29.9905 33.559 30.0004 33.4204 30.0004 33.2817C30.0004 31.9249 29.3167 30.7266 28.2762 30.0135C26.6511 28.9736 25.571 27.1513 25.571 25.0715C25.571 24.8041 25.5909 24.5466 25.6206 24.299C23.5099 25.6162 22.0037 27.8149 21.647 30.3898C20.9534 29.8847 20.5075 29.0627 20.5075 28.1417C20.5075 27.9931 20.5174 27.8446 20.5372 27.7059C19.0013 28.8052 18.0004 30.5978 18.0004 32.6281C18.0004 34.8366 19.1895 36.7678 20.9534 37.8176C21.8688 38.3784 22.931 38.6948 24.0815 38.699C24.0735 38.699 24.0656 38.699 24.0576 38.699C19.4262 38.699 15.7999 35.82 13.9693 31.6796C13.594 30.8226 13.292 29.7442 13.2462 28.6946C13.2187 28.425 13.2004 28.1458 13.2004 27.8666C13.2004 25.1512 14.5002 22.7536 16.4772 21.3285C19.58 19.2391 21.6303 15.5897 21.6303 11.4397C21.6303 10.9197 21.6028 10.3997 21.5388 9.89905C25.5569 12.5277 28.4126 16.9378 29.09 22.0796C30.3988 21.0589 31.2501 19.422 31.2501 17.5733C31.2501 17.2748 31.2318 16.9859 31.186 16.697Z" fill="#13E5BF" fill-opacity="0.2"/>
<path fill-rule="evenodd" clip-rule="evenodd" d="M25.1764 3.35937C24.4458 2.94841 23.5538 2.94841 22.8232 3.35937L6.02318 12.8094C5.26747 13.2344 4.7998 14.0341 4.7998 14.9011V33.6939C4.7998 34.5609 5.26747 35.3606 6.02318 35.7857L22.8232 45.2357C23.5538 45.6466 24.4458 45.6466 25.1764 45.2357L41.9764 35.7857C42.7321 35.3606 43.1998 34.5609 43.1998 33.6939V14.9011C43.1998 14.0341 42.7321 13.2344 41.9764 12.8094L25.1764 3.35937ZM25.1991 6.98942C24.4569 6.56122 23.5427 6.56121 22.8005 6.98942L9.60047 14.6048C8.85753 15.0334 8.3998 15.8259 8.3998 16.6837V31.9113C8.3998 32.7691 8.85753 33.5616 9.60047 33.9902L22.8005 41.6056C23.5427 42.0338 24.4569 42.0338 25.1991 41.6056L38.3991 33.9902C39.1421 33.5616 39.5998 32.7691 39.5998 31.9113V16.6837C39.5998 15.8259 39.1421 15.0334 38.3991 14.6048L25.1991 6.98942Z" fill="#13E5BF" fill-opacity="0.2"/>
<path d="M16.7998 31.199C16.7998 28.6912 18.0008 26.477 19.8439 25.1191C21.1597 24.3155 23.9105 22.3061 24.3865 20.6979C24.3509 21.0037 24.3271 21.3218 24.3271 21.6521C24.3271 22.6264 24.7375 23.5855 25.3535 24.471C23.383 25.8031 21.9879 27.9234 21.6464 30.3887C20.9527 29.8836 20.5068 29.0616 20.5068 28.1405C20.5068 27.992 20.5167 27.8434 20.5366 27.7048C19.0006 28.8041 17.9998 30.5966 17.9998 32.6269C17.9998 34.8354 19.1889 36.7667 20.9527 37.8164C21.805 38.3385 22.7844 38.6488 23.844 38.6925C22.5606 38.6435 21.3744 38.2593 20.3433 37.6091C18.2267 36.3124 16.7998 33.927 16.7998 31.199Z" fill="#13E5BF" fill-opacity="0.2"/>
<path d="M24.1138 38.6979C24.1174 38.6979 24.121 38.6979 24.1247 38.6979C27.038 38.6979 29.5588 36.9241 30.7123 34.3674C30.962 33.8291 31.1522 33.1685 31.176 32.5202C31.1879 32.3489 31.1998 32.1776 31.1998 32.0064C31.1998 30.3304 30.3793 28.8502 29.1308 27.9694C28.0069 27.2292 26.5828 26.0971 25.578 24.779C25.5731 24.8748 25.5704 24.9719 25.5704 25.0704C25.5704 27.1501 26.6505 28.9724 28.2756 30.0123C29.3161 30.7254 29.9998 31.9237 29.9998 33.2805C29.9998 33.4192 29.9899 33.5578 29.98 33.6965C29.9602 34.2214 29.8016 34.7562 29.5935 35.192C28.6336 37.259 26.5373 38.694 24.1138 38.6979Z" fill="#13E5BF" fill-opacity="0.2"/>
<path fill-rule="evenodd" clip-rule="evenodd" d="M28.8476 20.677C27.9936 16.6875 25.8113 13.2259 22.8175 10.8257C22.4059 10.4958 21.979 10.1859 21.5381 9.8975C21.6016 10.3938 21.6292 10.9089 21.6297 11.4243L21.6297 11.4381C21.6297 15.5882 19.5794 19.2375 16.4766 21.327C14.4995 22.7521 13.1998 25.1497 13.1998 27.865C13.1998 28.1442 13.2181 28.4235 13.2456 28.6931C13.2913 29.7426 13.5934 30.8211 13.9687 31.678C15.7992 35.8185 19.4256 38.6975 24.0569 38.6975C24.0649 38.6975 24.0729 38.6975 24.0809 38.6975C24.0885 38.6975 24.0962 38.6975 24.1039 38.6975C24.3271 38.6975 24.5476 38.6854 24.7648 38.6617C26.7893 38.4633 29.016 37.4724 30.5712 36.4821C33.9304 34.3638 35.9998 30.9655 35.9998 26.5458C35.9998 23.1018 34.6387 19.9968 32.446 17.7935C32.3714 17.7185 32.2958 17.6446 32.2193 17.5717C31.8914 17.2595 31.5462 16.9668 31.1854 16.6955C31.2311 16.9844 31.2494 17.2732 31.2494 17.5717C31.2494 17.8083 31.2355 18.0414 31.2084 18.2702C31.0876 19.2919 30.7053 20.2275 30.1349 21.0015C29.8349 21.4087 29.4828 21.7712 29.0893 22.078C29.027 21.6045 28.9461 21.1373 28.8476 20.677ZM29.2054 35.899C29.4571 35.759 29.6986 35.6152 29.9267 35.4699L29.9311 35.4671C32.9545 33.5605 34.7998 30.5387 34.7998 26.5458C34.7998 23.7706 33.8264 21.2504 32.228 19.3342C31.8452 20.8254 30.9876 22.1195 29.8272 23.0243L28.1735 24.3139L27.8996 22.2348C27.3823 18.3078 25.5043 14.8481 22.797 12.3857C22.5094 16.5349 20.3482 20.1589 17.1638 22.3109C15.5074 23.512 14.3998 25.5425 14.3998 27.865C14.3998 28.0931 14.4148 28.3303 14.4394 28.5715L14.4429 28.6061L14.4444 28.6408C14.4824 29.5124 14.7386 30.444 15.067 31.1947C15.9753 33.2481 17.3435 34.926 19.0532 36.0328C18.3893 35.0638 17.9998 33.8906 17.9998 32.6265C17.9998 31.1762 18.5105 29.8473 19.3621 28.8056C19.5562 28.5682 19.768 28.3457 19.9955 28.1401C20.1672 27.985 20.3478 27.8394 20.5366 27.7044C20.5167 27.843 20.5068 27.9916 20.5068 28.1401C20.5068 28.4803 20.5677 28.807 20.6793 29.1092L20.6887 29.1342C20.881 29.6395 21.216 30.0749 21.6464 30.3883C21.7124 29.912 21.8177 29.4485 21.9589 29.0012C22.4203 27.5392 23.265 26.2489 24.3725 25.2418C24.4365 25.1836 24.5014 25.1263 24.5672 25.07C24.8975 24.7871 25.2494 24.5287 25.62 24.2975C25.5902 24.5451 25.5704 24.8026 25.5704 25.07C25.5704 25.3055 25.5843 25.5378 25.6112 25.766C25.8221 27.5525 26.8346 29.0898 28.2756 30.0119C29.3161 30.725 29.9998 31.9234 29.9998 33.2802C29.9998 33.4188 29.9899 33.5574 29.98 33.6961C29.9602 34.221 29.8016 34.7558 29.5935 35.1916C29.4797 35.4367 29.3499 35.673 29.2054 35.899ZM24.6257 37.4696C26.3456 37.2849 27.8033 36.1975 28.5052 34.6862L28.5106 34.6744C28.6634 34.3545 28.7684 33.9802 28.7808 33.6508L28.7816 33.6307L28.783 33.6106C28.7935 33.4647 28.7998 33.3688 28.7998 33.2802C28.7998 32.3419 28.3313 31.5112 27.6107 31.0111C26.1168 30.0487 25.0063 28.5338 24.5714 26.7509C23.6562 27.8018 23.0349 29.1103 22.835 30.553L22.56 32.538L20.94 31.3584C20.5058 31.0422 20.1395 30.6396 19.8646 30.1769C19.4415 30.8961 19.1998 31.7328 19.1998 32.6265C19.1998 34.394 20.1504 35.9421 21.5665 36.7849L21.5796 36.7927C22.3091 37.2395 23.1547 37.4933 24.0809 37.4974C24.2586 37.4967 24.4405 37.4871 24.6257 37.4696Z" fill="url(#paint0_linear_1_29260)"/>
<path fill-rule="evenodd" clip-rule="evenodd" d="M25.1764 3.35937C24.4458 2.94841 23.5538 2.94841 22.8232 3.35937L6.02318 12.8094C5.26747 13.2345 4.7998 14.0341 4.7998 14.9011V33.6939C4.7998 34.5609 5.26747 35.3606 6.02318 35.7857L22.8232 45.2357C23.5538 45.6466 24.4458 45.6466 25.1764 45.2357L41.9764 35.7857C42.7321 35.3606 43.1998 34.5609 43.1998 33.6939V14.9011C43.1998 14.0341 42.7321 13.2345 41.9764 12.8094L25.1764 3.35937ZM41.3881 13.8553L24.5881 4.40526C24.2228 4.19978 23.7768 4.19978 23.4115 4.40526L6.61149 13.8553C6.23364 14.0678 5.9998 14.4676 5.9998 14.9011V33.6939C5.9998 34.1274 6.23364 34.5272 6.61149 34.7398L23.4115 44.1898C23.7768 44.3952 24.2228 44.3952 24.5881 44.1898L41.3881 34.7398C41.766 34.5272 41.9998 34.1274 41.9998 33.6939V14.9011C41.9998 14.4676 41.766 14.0678 41.3881 13.8553Z" fill="url(#paint1_linear_1_29260)"/>
<defs>
<linearGradient id="paint0_linear_1_29260" x1="4.7998" y1="3.05115" x2="4.7998" y2="45.5439" gradientUnits="userSpaceOnUse">
<stop stop-color="#13E5BF"/>
<stop offset="1" stop-color="#01C38D"/>
</linearGradient>
<linearGradient id="paint1_linear_1_29260" x1="4.7998" y1="3.05115" x2="4.7998" y2="45.5439" gradientUnits="userSpaceOnUse">
<stop stop-color="#13E5BF"/>
<stop offset="1" stop-color="#01C38D"/>
</linearGradient>
</defs>
</svg>
