<svg width="48" height="49" viewBox="0 0 48 49" fill="none" xmlns="http://www.w3.org/2000/svg">
<path fill-rule="evenodd" clip-rule="evenodd" d="M25.5763 3.58495C24.5976 3.03443 23.4025 3.03443 22.4238 3.58496L6.43891 12.5765C5.42655 13.1459 4.80005 14.2171 4.80005 15.3787V33.218C4.80005 34.3795 5.42655 35.4507 6.43891 36.0202L22.4238 45.0117C23.4025 45.5622 24.5976 45.5622 25.5763 45.0117L41.5612 36.0202C42.5736 35.4507 43.2001 34.3795 43.2001 33.218V15.3787C43.2001 14.2171 42.5735 13.1459 41.5612 12.5765L25.5763 3.58495ZM25.6202 8.4432C24.6192 7.85924 23.3813 7.85924 22.3803 8.4432L11.1954 14.9677C10.2076 15.5439 9.60025 16.6014 9.60025 17.7449V30.8515C9.60025 31.995 10.2076 33.0525 11.1954 33.6287L22.3803 40.1532C23.3813 40.7372 24.6192 40.7372 25.6202 40.1532L36.8051 33.6287C37.7929 33.0525 38.4002 31.995 38.4002 30.8515V17.7449C38.4002 16.6014 37.7929 15.5439 36.8051 14.9677L25.6202 8.4432Z" fill="#13E5BF" fill-opacity="0.2"/>
<path fill-rule="evenodd" clip-rule="evenodd" d="M24.5886 4.40666L41.3886 13.8567C41.7665 14.0692 42.0003 14.469 42.0003 14.9026V33.6953C42.0003 34.1288 41.7665 34.5286 41.3886 34.7412L24.5886 44.1912C24.2233 44.3966 23.7773 44.3966 23.412 44.1912L6.61198 34.7412C6.23413 34.5286 6.00029 34.1288 6.00029 33.6953V14.9026C6.00029 14.469 6.23413 14.0692 6.61198 13.8567L23.412 4.40666C23.7773 4.20118 24.2233 4.20118 24.5886 4.40666ZM22.8237 3.36077C23.5543 2.94981 24.4463 2.94981 25.1769 3.36077L41.9769 12.8108C42.7326 13.2359 43.2003 14.0355 43.2003 14.9026V33.6953C43.2003 34.5623 42.7326 35.362 41.9769 35.7871L25.1769 45.2371C24.4463 45.648 23.5543 45.648 22.8237 45.2371L6.02367 35.7871C5.26796 35.362 4.80029 34.5623 4.80029 33.6953V14.9026C4.80029 14.0355 5.26796 13.2359 6.02367 12.8108L22.8237 3.36077ZM24.8932 13.4153L26.8616 12.2981L33.1241 15.8535V19.104L36.0004 20.7367V27.8675L33.1241 29.4984V32.7427L26.8616 36.2981L24.8932 35.1806V25.4288L15.4091 20.0437L13.0754 21.3671V27.2219L15.4065 28.5452L17.9199 27.1269L17.9297 27.033C17.986 26.4754 18.4427 26.0552 18.9922 26.0552C19.5851 26.0552 20.0672 26.5434 20.0672 27.1438C20.0672 27.7441 19.5851 28.2324 18.9922 28.2324C18.8347 28.2324 18.678 28.1946 18.5257 28.1197L18.4422 28.0787L15.9518 29.4834V32.1049L21.139 35.05L22.0327 34.5428V33.5551L17.0238 30.7155V30.1451L17.622 29.8075L22.0327 32.3073V25.0589L23.1077 25.6692V35.1806L21.139 36.2981L14.877 32.7427V29.493L12.0004 27.8598V20.7284L14.877 19.0975V15.8535L21.139 12.2981L23.1077 13.4156V23.1674L32.5918 28.5525L34.9254 27.2292V21.3746L32.5944 20.0507L30.081 21.4696L30.0717 21.5635C30.0152 22.1205 29.5584 22.541 29.0086 22.541C28.4155 22.541 27.9337 22.0525 27.9337 21.4524C27.9337 20.8521 28.4155 20.3636 29.0086 20.3636C29.1662 20.3636 29.3232 20.4019 29.4752 20.4765L29.5587 20.5178L32.0494 19.1125V16.4913L26.8616 13.5462L25.9679 14.0532V15.0411L30.977 17.8805V18.4509L30.3786 18.7884L29.662 18.3824L29.6586 18.3842L25.9679 16.289V23.5167L24.8932 22.9061V13.4153ZM21.1389 13.5462L15.9516 16.4913V18.4881L22.0325 15.0408V14.0537L21.1389 13.5462ZM16.5094 19.4203L22.0326 16.2884V22.5565L16.5094 19.4203ZM31.4916 29.1763L25.9679 26.0393V32.308L31.4916 29.1763ZM25.9679 34.5427V33.5555L32.0493 30.108V32.1048L26.8615 35.0499L25.9679 34.5427Z" fill="url(#paint0_linear_1_29277)"/>
<defs>
<linearGradient id="paint0_linear_1_29277" x1="4.80029" y1="3.05255" x2="4.80029" y2="45.5453" gradientUnits="userSpaceOnUse">
<stop stop-color="#13E5BF"/>
<stop offset="1" stop-color="#01C38D"/>
</linearGradient>
</defs>
</svg>
