<?xml version="1.0" standalone="no"?>
<!DOCTYPE svg PUBLIC "-//W3C//DTD SVG 20010904//EN"
 "http://www.w3.org/TR/2001/REC-SVG-20010904/DTD/svg10.dtd">
<svg version="1.0" xmlns="http://www.w3.org/2000/svg"
 width="260.000000pt" height="260.000000pt" viewBox="0 0 260.000000 260.000000"
 preserveAspectRatio="xMidYMid meet">
<metadata>
Created by potrace 1.14, written by Peter Selinger 2001-2017
</metadata>
<g transform="translate(0.000000,260.000000) scale(0.100000,-0.100000)"
fill="#000000" stroke="none">
<path d="M815 2146 l-250 -142 -1 -133 0 -132 -117 -67 -117 -66 0 -290 0
-291 107 -60 c58 -33 111 -65 117 -71 7 -6 11 -55 10 -130 -1 -111 5 -154 25
-154 4 0 100 -52 212 -116 112 -64 219 -124 238 -135 l34 -18 66 36 c36 20 72
41 79 48 11 10 14 81 13 346 0 184 0 357 0 385 -1 48 -3 51 -40 72 -21 12 -40
22 -43 22 -2 0 -3 -126 -3 -281 0 -154 -2 -285 -5 -290 -3 -4 -84 36 -179 91
-150 85 -177 97 -197 88 -27 -12 -36 -41 -20 -61 6 -8 58 -41 116 -73 57 -33
112 -63 121 -69 10 -5 41 -23 71 -38 84 -45 91 -53 93 -95 1 -35 -2 -41 -36
-59 l-36 -20 -212 120 -212 119 3 107 3 106 99 57 c73 42 104 55 119 49 32
-12 65 -1 91 30 29 34 26 81 -7 117 -41 44 -127 20 -142 -41 -4 -15 -37 -39
-107 -78 l-101 -57 -51 28 c-28 16 -71 40 -95 53 l-44 25 1 209 c0 114 1 222
1 238 1 27 10 35 94 83 l94 52 374 -211 c206 -117 379 -218 385 -225 7 -9 10
-137 10 -401 l-1 -388 80 -47 c90 -53 72 -55 205 22 36 20 85 49 110 63 25 13
97 54 160 90 l115 66 1 123 c1 68 2 128 3 133 1 6 53 39 116 75 l115 65 0 290
0 290 -117 66 -117 67 0 132 -1 132 -210 120 c-116 66 -229 131 -253 144 l-44
25 -74 -41 c-40 -23 -77 -46 -80 -52 -4 -7 -8 -182 -8 -390 l-1 -379 44 -25
c24 -13 44 -24 45 -24 1 0 1 131 1 290 0 255 2 290 15 285 8 -4 65 -35 125
-69 228 -130 220 -127 244 -110 11 8 21 26 21 38 0 20 -29 40 -197 136 -109
61 -199 113 -201 115 -2 2 -5 20 -6 40 -3 32 1 39 32 60 41 28 11 40 272 -109
l185 -106 1 -105 2 -105 -49 -30 c-27 -16 -52 -30 -54 -30 -3 0 -23 -11 -46
-25 -27 -18 -52 -25 -77 -24 -52 3 -75 -7 -94 -39 -34 -58 9 -132 76 -132 34
0 69 28 80 65 4 13 45 43 107 78 l101 57 94 -53 94 -52 -3 -240 -2 -240 -92
-52 -91 -53 -384 219 -383 218 -1 387 c-1 212 -4 392 -7 400 -5 12 -147 97
-158 95 -2 0 -116 -65 -254 -143z m306 13 c21 -15 26 -25 23 -55 -1 -20 -4
-37 -6 -39 -4 -3 -433 -247 -466 -264 l-23 -12 3 81 c3 75 5 83 28 96 207 120
396 222 404 217 6 -4 23 -14 37 -24z m24 -451 c0 -215 -2 -245 -15 -240 -13 5
-265 147 -389 219 l-43 25 213 123 c118 67 218 122 224 121 5 -2 9 -101 10
-248z m563 -673 c106 -60 191 -113 190 -117 -5 -15 -423 -247 -428 -238 -4 7
-5 476 -1 489 0 2 11 -3 24 -11 12 -8 109 -63 215 -123z m249 -269 c1 -57 -2
-78 -14 -88 -9 -7 -104 -63 -212 -124 l-195 -111 -36 22 c-30 19 -35 27 -35
60 l1 38 239 138 c132 75 242 138 245 138 4 1 7 -32 7 -73z"/>
</g>
</svg>
