<svg width="0" height="0" class="hidden">
  <symbol fill="none" xmlns="http://www.w3.org/2000/svg" viewBox="0 0 48 49" id="buyback">
    <path d="M44.4077 19.5016C42.2367 10.2144 33.9035 3.29748 23.9547 3.29748C22.0736 3.29748 20.2502 3.54477 18.5153 4.00862L18.5211 4.00469C16.9074 4.4363 15.3721 5.05469 13.939 5.83469C7.55571 9.30407 3.17196 15.9866 2.95882 23.7112L1.96763 21.6602C1.82344 21.3619 1.46469 21.2369 1.16633 21.3811C0.867972 21.5253 0.742995 21.884 0.887183 22.1824L2.94585 26.4422C3.04038 26.6378 3.23327 26.767 3.45013 26.7801C3.66699 26.7931 3.87395 26.6878 3.99119 26.5049L6.54446 22.5218C6.72328 22.2428 6.6421 21.8717 6.36312 21.6929C6.08415 21.5141 5.71303 21.5953 5.5342 21.8742L4.16713 24.0069C4.26791 16.6318 8.42386 10.1849 14.5515 6.86789C17.349 5.35585 20.5516 4.49748 23.9547 4.49748C33.2369 4.49748 41.0276 10.8834 43.173 19.5016L44.4077 19.5016Z" fill="url(#paint0_linear_1_29254)"></path>
    <path d="M44.8699 22.3197C44.7664 22.1288 44.5677 22.0087 44.3504 22.0058C44.1332 22.0029 43.9314 22.1177 43.8228 22.3059L41.4581 26.4037C41.2925 26.6908 41.3909 27.0577 41.678 27.2233C41.965 27.3889 42.3319 27.2905 42.4975 27.0035L43.751 24.8312C43.6477 28.766 42.3967 32.4149 40.3205 35.4556C38.3581 38.3255 35.6577 40.6575 32.4843 42.1716L32.462 42.19C29.8844 43.4181 26.9995 44.1056 23.954 44.1056C14.6921 44.1056 6.91518 37.7475 4.74981 29.158L3.51424 29.158C5.70578 38.4167 14.0254 45.3056 23.954 45.3056C31.1825 45.3056 37.5582 41.654 41.3371 36.0949C43.5085 32.9047 44.8216 29.0909 44.9547 24.9937L46.0702 27.0509C46.2281 27.3422 46.5923 27.4503 46.8836 27.2923C47.1749 27.1344 47.283 26.7702 47.1251 26.4789L44.8699 22.3197Z" fill="url(#paint1_linear_1_29254)"></path>
    <path fill-rule="evenodd" clip-rule="evenodd" d="M24.4479 11.6242C24.1703 11.4659 23.8296 11.4659 23.552 11.6242L13.1095 17.5785C12.8273 17.7394 12.6531 18.0393 12.6531 18.3642V30.2318C12.6531 30.5566 12.8273 30.8565 13.1095 31.0174L23.552 36.9717C23.8296 37.13 24.1703 37.13 24.4479 36.9717L34.8904 31.0174C35.1726 30.8565 35.3468 30.5566 35.3468 30.2318V18.3642C35.3468 18.0393 35.1726 17.7394 34.8904 17.5785L24.4479 11.6242ZM23.0566 10.7555C23.6413 10.4221 24.3586 10.4221 24.9433 10.7555L35.3857 16.7098C35.9799 17.0486 36.3468 17.6801 36.3468 18.3642V30.2318C36.3468 30.9158 35.9799 31.5473 35.3857 31.8861L24.9433 37.8404C24.3586 38.1738 23.6413 38.1738 23.0566 37.8404L12.6142 31.8861C12.0199 31.5473 11.6531 30.9158 11.6531 30.2318V18.3642C11.6531 17.6801 12.0199 17.0486 12.6142 16.7098L23.0566 10.7555Z" fill="url(#paint2_linear_1_29254)"></path>
    <path fill-rule="evenodd" clip-rule="evenodd" d="M24 40.9201C33.1803 40.9201 40.6224 33.478 40.6224 24.2978C40.6224 15.1175 33.1803 7.67542 24 7.67542C14.8198 7.67542 7.37769 15.1175 7.37769 24.2978C7.37769 33.478 14.8198 40.9201 24 40.9201ZM22.9629 9.40931C23.6057 9.04276 24.3943 9.04276 25.0371 9.40931L36.5183 15.9558C37.1716 16.3283 37.5749 17.0227 37.5749 17.7747V30.8228C37.5749 31.5748 37.1716 32.2691 36.5183 32.6417L25.0371 39.1882C24.3943 39.5547 23.6057 39.5547 22.9629 39.1882L11.4817 32.6417C10.8284 32.2691 10.425 31.5748 10.425 30.8228V17.7747C10.425 17.0227 10.8284 16.3283 11.4817 15.9558L22.9629 9.40931Z" fill="#13E5BF" fill-opacity="0.1"></path>
    <path fill-rule="evenodd" clip-rule="evenodd" d="M26.1934 15.0992L24.6844 15.9557V23.2316L25.5083 23.6996V18.1587L28.3377 19.765L28.3403 19.7636L28.8897 20.0748L29.3484 19.8161V19.3788L25.5083 17.2021V16.4447L26.1934 16.0561L30.1705 18.3139V20.3233L28.2611 21.4006L28.1971 21.369C28.0806 21.3118 27.9602 21.2824 27.8394 21.2824C27.3847 21.2824 27.0153 21.6569 27.0153 22.1172C27.0153 22.5772 27.3847 22.9517 27.8394 22.9517C28.2609 22.9517 28.611 22.6293 28.6544 22.2023L28.6615 22.1303L30.5883 21.0426L32.3754 22.0575V26.5457L30.5863 27.5602L23.3156 23.4319V15.9559L21.8064 15.0992L17.0058 17.8249V20.3119L14.8005 21.5621V27.0292L17.0058 28.2813V30.7726L21.8064 33.4982L23.3156 32.6415V25.3498L22.4915 24.882V30.4387L19.1102 28.5224L18.6516 28.7811V29.2184L22.4915 31.3953V32.1525L21.8064 32.5414L17.8297 30.2836V28.2739L19.7389 27.197L19.803 27.2284C19.9197 27.2859 20.0398 27.3148 20.1606 27.3148C20.6151 27.3148 20.9847 26.9405 20.9847 26.4803C20.9847 26.02 20.6151 25.6457 20.1606 25.6457C19.7393 25.6457 19.3892 25.9679 19.346 26.3953L19.3385 26.4673L17.4117 27.5547L15.6246 26.5402V22.0517L17.4137 21.0372L24.6844 25.1656V32.6415L26.1934 33.4982L30.9944 30.7726V28.2854L33.1995 27.0351V21.5685L30.9944 20.3168V17.8249L26.1934 15.0992ZM17.8296 18.3138L21.8063 16.0561L22.4914 16.4451V17.2019L17.8296 19.8446V18.3138ZM22.4915 18.1583L18.2572 20.5593L22.4915 22.9636V18.1583ZM25.5083 25.6336L29.7429 28.0385L25.5083 30.4393V25.6336ZM25.5083 31.3957V32.1524L26.1934 32.5413L30.1705 30.2835V28.7527L25.5083 31.3957Z" fill="url(#paint3_linear_1_29254)"></path>
    <defs>
      <linearGradient id="paint0_linear_1_29254" x1="22.6175" y1="30.1415" x2="22.6175" y2="3.29748" gradientUnits="userSpaceOnUse">
        <stop stop-color="#13E5BF"></stop>
        <stop offset="1" stop-color="#01C38D"></stop>
      </linearGradient>
      <linearGradient id="paint1_linear_1_29254" x1="25.356" y1="48.6397" x2="25.356" y2="22.0057" gradientUnits="userSpaceOnUse">
        <stop stop-color="#13E5BF"></stop>
        <stop offset="1" stop-color="#01C38D"></stop>
      </linearGradient>
      <linearGradient id="paint2_linear_1_29254" x1="39.8804" y1="24.298" x2="11.6531" y2="24.298" gradientUnits="userSpaceOnUse">
        <stop stop-color="#13E5BF"></stop>
        <stop offset="1" stop-color="#01C38D"></stop>
      </linearGradient>
      <linearGradient id="paint3_linear_1_29254" x1="14.8005" y1="15.0992" x2="14.8005" y2="33.4982" gradientUnits="userSpaceOnUse">
        <stop stop-color="#13E5BF"></stop>
        <stop offset="1" stop-color="#01C38D"></stop>
      </linearGradient>
    </defs>
  </symbol>
  <symbol fill="none" xmlns="http://www.w3.org/2000/svg" viewBox="0 0 48 49" id="diamond">
    <path fill-rule="evenodd" clip-rule="evenodd" d="M18.9792 6.99609H10.3874C9.93605 6.99609 9.50933 7.18986 9.22669 7.52353L2.32531 16.2398C2.09283 16.5144 1.98659 17.4483 2.00146 17.7783H16.3274L18.9792 6.99609Z" fill="#13E5BF" fill-opacity="0.2"></path>
    <path fill-rule="evenodd" clip-rule="evenodd" d="M28.1502 6.99609H36.742C37.1933 6.99609 37.6201 7.18986 37.9027 7.52353L44.8041 16.2398C45.0366 16.5144 45.1428 17.4483 45.1279 17.7783H30.802L28.1502 6.99609Z" fill="#13E5BF" fill-opacity="0.2"></path>
    <path fill-rule="evenodd" clip-rule="evenodd" d="M22.7244 41.3108C22.9544 41.5539 23.2535 41.6935 23.5646 41.7392L16.3764 17.1797H2.59912C2.61303 17.4942 2.73662 17.8044 2.97152 18.0515L22.7244 41.3108Z" fill="#13E5BF" fill-opacity="0.2"></path>
    <path fill-rule="evenodd" clip-rule="evenodd" d="M24.405 41.3108C24.175 41.5539 23.8759 41.6935 23.5648 41.7392L30.753 17.1797H44.5303C44.5164 17.4942 44.3928 17.8044 44.1579 18.0515L24.405 41.3108Z" fill="#13E5BF" fill-opacity="0.2"></path>
    <path fill-rule="evenodd" clip-rule="evenodd" d="M44.7569 18.3777C45.2276 17.8186 45.3119 16.5724 44.8752 15.9817L37.2932 6.37424C37.0242 6.01043 36.6171 5.79846 36.1869 5.79846H10.9391C10.5093 5.79846 10.1021 6.01043 9.83315 6.37424L2.36954 15.9817C1.93243 16.5724 1.89836 17.8186 2.3695 18.3777L22.5162 42.4373C23.0785 43.1039 24.0479 43.1039 24.6102 42.4373L44.7569 18.3777ZM36.3299 7.08648L36.3411 7.10163L43.8218 16.5807H31.1305L28.5974 6.99649H36.1869C36.2145 6.99649 36.273 7.0095 36.3299 7.08648ZM27.3583 6.99649L29.8913 16.5807H17.235L19.768 6.99649H27.3583ZM18.5288 6.99649L15.9958 16.5807H3.42125L10.788 7.09795L10.7965 7.08648C10.8535 7.00934 10.9121 6.99649 10.9391 6.99649H18.5288ZM3.43048 17.7787L22.2865 40.2969L15.8345 17.7787H3.43048ZM24.8397 40.2971L43.6959 17.7787H31.2918L24.8397 40.2971ZM23.5631 40.4031L17.0807 17.7787H30.0455L23.5631 40.4031Z" fill="url(#paint0_linear_1_29289)"></path>
    <defs>
      <linearGradient id="paint0_linear_1_29289" x1="51.3325" y1="24.3678" x2="2.02881" y2="24.3678" gradientUnits="userSpaceOnUse">
        <stop stop-color="#13E5BF"></stop>
        <stop offset="1" stop-color="#01C38D"></stop>
      </linearGradient>
    </defs>
  </symbol>
  <symbol fill="none" xmlns="http://www.w3.org/2000/svg" viewBox="0 0 48 49" id="fire">
    <path d="M31.186 16.697C34.1058 18.8924 36.0004 22.484 36.0004 26.5474C36.0004 30.9671 33.931 34.3653 30.5719 36.4837C29.0166 37.474 26.7899 38.4648 24.7654 38.6632C26.909 38.4295 28.7214 37.0726 29.5942 35.1931C29.8023 34.7574 29.9608 34.2226 29.9806 33.6977C29.9905 33.559 30.0004 33.4204 30.0004 33.2817C30.0004 31.9249 29.3167 30.7266 28.2762 30.0135C26.6511 28.9736 25.571 27.1513 25.571 25.0715C25.571 24.8041 25.5909 24.5466 25.6206 24.299C23.5099 25.6162 22.0037 27.8149 21.647 30.3898C20.9534 29.8847 20.5075 29.0627 20.5075 28.1417C20.5075 27.9931 20.5174 27.8446 20.5372 27.7059C19.0013 28.8052 18.0004 30.5978 18.0004 32.6281C18.0004 34.8366 19.1895 36.7678 20.9534 37.8176C21.8688 38.3784 22.931 38.6948 24.0815 38.699C24.0735 38.699 24.0656 38.699 24.0576 38.699C19.4262 38.699 15.7999 35.82 13.9693 31.6796C13.594 30.8226 13.292 29.7442 13.2462 28.6946C13.2187 28.425 13.2004 28.1458 13.2004 27.8666C13.2004 25.1512 14.5002 22.7536 16.4772 21.3285C19.58 19.2391 21.6303 15.5897 21.6303 11.4397C21.6303 10.9197 21.6028 10.3997 21.5388 9.89905C25.5569 12.5277 28.4126 16.9378 29.09 22.0796C30.3988 21.0589 31.2501 19.422 31.2501 17.5733C31.2501 17.2748 31.2318 16.9859 31.186 16.697Z" fill="#13E5BF" fill-opacity="0.2"></path>
    <path fill-rule="evenodd" clip-rule="evenodd" d="M25.1764 3.35937C24.4458 2.94841 23.5538 2.94841 22.8232 3.35937L6.02318 12.8094C5.26747 13.2344 4.7998 14.0341 4.7998 14.9011V33.6939C4.7998 34.5609 5.26747 35.3606 6.02318 35.7857L22.8232 45.2357C23.5538 45.6466 24.4458 45.6466 25.1764 45.2357L41.9764 35.7857C42.7321 35.3606 43.1998 34.5609 43.1998 33.6939V14.9011C43.1998 14.0341 42.7321 13.2344 41.9764 12.8094L25.1764 3.35937ZM25.1991 6.98942C24.4569 6.56122 23.5427 6.56121 22.8005 6.98942L9.60047 14.6048C8.85753 15.0334 8.3998 15.8259 8.3998 16.6837V31.9113C8.3998 32.7691 8.85753 33.5616 9.60047 33.9902L22.8005 41.6056C23.5427 42.0338 24.4569 42.0338 25.1991 41.6056L38.3991 33.9902C39.1421 33.5616 39.5998 32.7691 39.5998 31.9113V16.6837C39.5998 15.8259 39.1421 15.0334 38.3991 14.6048L25.1991 6.98942Z" fill="#13E5BF" fill-opacity="0.2"></path>
    <path d="M16.7998 31.199C16.7998 28.6912 18.0008 26.477 19.8439 25.1191C21.1597 24.3155 23.9105 22.3061 24.3865 20.6979C24.3509 21.0037 24.3271 21.3218 24.3271 21.6521C24.3271 22.6264 24.7375 23.5855 25.3535 24.471C23.383 25.8031 21.9879 27.9234 21.6464 30.3887C20.9527 29.8836 20.5068 29.0616 20.5068 28.1405C20.5068 27.992 20.5167 27.8434 20.5366 27.7048C19.0006 28.8041 17.9998 30.5966 17.9998 32.6269C17.9998 34.8354 19.1889 36.7667 20.9527 37.8164C21.805 38.3385 22.7844 38.6488 23.844 38.6925C22.5606 38.6435 21.3744 38.2593 20.3433 37.6091C18.2267 36.3124 16.7998 33.927 16.7998 31.199Z" fill="#13E5BF" fill-opacity="0.2"></path>
    <path d="M24.1138 38.6979C24.1174 38.6979 24.121 38.6979 24.1247 38.6979C27.038 38.6979 29.5588 36.9241 30.7123 34.3674C30.962 33.8291 31.1522 33.1685 31.176 32.5202C31.1879 32.3489 31.1998 32.1776 31.1998 32.0064C31.1998 30.3304 30.3793 28.8502 29.1308 27.9694C28.0069 27.2292 26.5828 26.0971 25.578 24.779C25.5731 24.8748 25.5704 24.9719 25.5704 25.0704C25.5704 27.1501 26.6505 28.9724 28.2756 30.0123C29.3161 30.7254 29.9998 31.9237 29.9998 33.2805C29.9998 33.4192 29.9899 33.5578 29.98 33.6965C29.9602 34.2214 29.8016 34.7562 29.5935 35.192C28.6336 37.259 26.5373 38.694 24.1138 38.6979Z" fill="#13E5BF" fill-opacity="0.2"></path>
    <path fill-rule="evenodd" clip-rule="evenodd" d="M28.8476 20.677C27.9936 16.6875 25.8113 13.2259 22.8175 10.8257C22.4059 10.4958 21.979 10.1859 21.5381 9.8975C21.6016 10.3938 21.6292 10.9089 21.6297 11.4243L21.6297 11.4381C21.6297 15.5882 19.5794 19.2375 16.4766 21.327C14.4995 22.7521 13.1998 25.1497 13.1998 27.865C13.1998 28.1442 13.2181 28.4235 13.2456 28.6931C13.2913 29.7426 13.5934 30.8211 13.9687 31.678C15.7992 35.8185 19.4256 38.6975 24.0569 38.6975C24.0649 38.6975 24.0729 38.6975 24.0809 38.6975C24.0885 38.6975 24.0962 38.6975 24.1039 38.6975C24.3271 38.6975 24.5476 38.6854 24.7648 38.6617C26.7893 38.4633 29.016 37.4724 30.5712 36.4821C33.9304 34.3638 35.9998 30.9655 35.9998 26.5458C35.9998 23.1018 34.6387 19.9968 32.446 17.7935C32.3714 17.7185 32.2958 17.6446 32.2193 17.5717C31.8914 17.2595 31.5462 16.9668 31.1854 16.6955C31.2311 16.9844 31.2494 17.2732 31.2494 17.5717C31.2494 17.8083 31.2355 18.0414 31.2084 18.2702C31.0876 19.2919 30.7053 20.2275 30.1349 21.0015C29.8349 21.4087 29.4828 21.7712 29.0893 22.078C29.027 21.6045 28.9461 21.1373 28.8476 20.677ZM29.2054 35.899C29.4571 35.759 29.6986 35.6152 29.9267 35.4699L29.9311 35.4671C32.9545 33.5605 34.7998 30.5387 34.7998 26.5458C34.7998 23.7706 33.8264 21.2504 32.228 19.3342C31.8452 20.8254 30.9876 22.1195 29.8272 23.0243L28.1735 24.3139L27.8996 22.2348C27.3823 18.3078 25.5043 14.8481 22.797 12.3857C22.5094 16.5349 20.3482 20.1589 17.1638 22.3109C15.5074 23.512 14.3998 25.5425 14.3998 27.865C14.3998 28.0931 14.4148 28.3303 14.4394 28.5715L14.4429 28.6061L14.4444 28.6408C14.4824 29.5124 14.7386 30.444 15.067 31.1947C15.9753 33.2481 17.3435 34.926 19.0532 36.0328C18.3893 35.0638 17.9998 33.8906 17.9998 32.6265C17.9998 31.1762 18.5105 29.8473 19.3621 28.8056C19.5562 28.5682 19.768 28.3457 19.9955 28.1401C20.1672 27.985 20.3478 27.8394 20.5366 27.7044C20.5167 27.843 20.5068 27.9916 20.5068 28.1401C20.5068 28.4803 20.5677 28.807 20.6793 29.1092L20.6887 29.1342C20.881 29.6395 21.216 30.0749 21.6464 30.3883C21.7124 29.912 21.8177 29.4485 21.9589 29.0012C22.4203 27.5392 23.265 26.2489 24.3725 25.2418C24.4365 25.1836 24.5014 25.1263 24.5672 25.07C24.8975 24.7871 25.2494 24.5287 25.62 24.2975C25.5902 24.5451 25.5704 24.8026 25.5704 25.07C25.5704 25.3055 25.5843 25.5378 25.6112 25.766C25.8221 27.5525 26.8346 29.0898 28.2756 30.0119C29.3161 30.725 29.9998 31.9234 29.9998 33.2802C29.9998 33.4188 29.9899 33.5574 29.98 33.6961C29.9602 34.221 29.8016 34.7558 29.5935 35.1916C29.4797 35.4367 29.3499 35.673 29.2054 35.899ZM24.6257 37.4696C26.3456 37.2849 27.8033 36.1975 28.5052 34.6862L28.5106 34.6744C28.6634 34.3545 28.7684 33.9802 28.7808 33.6508L28.7816 33.6307L28.783 33.6106C28.7935 33.4647 28.7998 33.3688 28.7998 33.2802C28.7998 32.3419 28.3313 31.5112 27.6107 31.0111C26.1168 30.0487 25.0063 28.5338 24.5714 26.7509C23.6562 27.8018 23.0349 29.1103 22.835 30.553L22.56 32.538L20.94 31.3584C20.5058 31.0422 20.1395 30.6396 19.8646 30.1769C19.4415 30.8961 19.1998 31.7328 19.1998 32.6265C19.1998 34.394 20.1504 35.9421 21.5665 36.7849L21.5796 36.7927C22.3091 37.2395 23.1547 37.4933 24.0809 37.4974C24.2586 37.4967 24.4405 37.4871 24.6257 37.4696Z" fill="url(#paint0_linear_1_29260)"></path>
    <path fill-rule="evenodd" clip-rule="evenodd" d="M25.1764 3.35937C24.4458 2.94841 23.5538 2.94841 22.8232 3.35937L6.02318 12.8094C5.26747 13.2345 4.7998 14.0341 4.7998 14.9011V33.6939C4.7998 34.5609 5.26747 35.3606 6.02318 35.7857L22.8232 45.2357C23.5538 45.6466 24.4458 45.6466 25.1764 45.2357L41.9764 35.7857C42.7321 35.3606 43.1998 34.5609 43.1998 33.6939V14.9011C43.1998 14.0341 42.7321 13.2345 41.9764 12.8094L25.1764 3.35937ZM41.3881 13.8553L24.5881 4.40526C24.2228 4.19978 23.7768 4.19978 23.4115 4.40526L6.61149 13.8553C6.23364 14.0678 5.9998 14.4676 5.9998 14.9011V33.6939C5.9998 34.1274 6.23364 34.5272 6.61149 34.7398L23.4115 44.1898C23.7768 44.3952 24.2228 44.3952 24.5881 44.1898L41.3881 34.7398C41.766 34.5272 41.9998 34.1274 41.9998 33.6939V14.9011C41.9998 14.4676 41.766 14.0678 41.3881 13.8553Z" fill="url(#paint1_linear_1_29260)"></path>
    <defs>
      <linearGradient id="paint0_linear_1_29260" x1="4.7998" y1="3.05115" x2="4.7998" y2="45.5439" gradientUnits="userSpaceOnUse">
        <stop stop-color="#13E5BF"></stop>
        <stop offset="1" stop-color="#01C38D"></stop>
      </linearGradient>
      <linearGradient id="paint1_linear_1_29260" x1="4.7998" y1="3.05115" x2="4.7998" y2="45.5439" gradientUnits="userSpaceOnUse">
        <stop stop-color="#13E5BF"></stop>
        <stop offset="1" stop-color="#01C38D"></stop>
      </linearGradient>
    </defs>
  </symbol>
  <symbol fill="none" xmlns="http://www.w3.org/2000/svg" viewBox="0 0 48 49" id="token">
    <path fill-rule="evenodd" clip-rule="evenodd" d="M25.5763 3.58495C24.5976 3.03443 23.4025 3.03443 22.4238 3.58496L6.43891 12.5765C5.42655 13.1459 4.80005 14.2171 4.80005 15.3787V33.218C4.80005 34.3795 5.42655 35.4507 6.43891 36.0202L22.4238 45.0117C23.4025 45.5622 24.5976 45.5622 25.5763 45.0117L41.5612 36.0202C42.5736 35.4507 43.2001 34.3795 43.2001 33.218V15.3787C43.2001 14.2171 42.5735 13.1459 41.5612 12.5765L25.5763 3.58495ZM25.6202 8.4432C24.6192 7.85924 23.3813 7.85924 22.3803 8.4432L11.1954 14.9677C10.2076 15.5439 9.60025 16.6014 9.60025 17.7449V30.8515C9.60025 31.995 10.2076 33.0525 11.1954 33.6287L22.3803 40.1532C23.3813 40.7372 24.6192 40.7372 25.6202 40.1532L36.8051 33.6287C37.7929 33.0525 38.4002 31.995 38.4002 30.8515V17.7449C38.4002 16.6014 37.7929 15.5439 36.8051 14.9677L25.6202 8.4432Z" fill="#13E5BF" fill-opacity="0.2"></path>
    <path fill-rule="evenodd" clip-rule="evenodd" d="M24.5886 4.40666L41.3886 13.8567C41.7665 14.0692 42.0003 14.469 42.0003 14.9026V33.6953C42.0003 34.1288 41.7665 34.5286 41.3886 34.7412L24.5886 44.1912C24.2233 44.3966 23.7773 44.3966 23.412 44.1912L6.61198 34.7412C6.23413 34.5286 6.00029 34.1288 6.00029 33.6953V14.9026C6.00029 14.469 6.23413 14.0692 6.61198 13.8567L23.412 4.40666C23.7773 4.20118 24.2233 4.20118 24.5886 4.40666ZM22.8237 3.36077C23.5543 2.94981 24.4463 2.94981 25.1769 3.36077L41.9769 12.8108C42.7326 13.2359 43.2003 14.0355 43.2003 14.9026V33.6953C43.2003 34.5623 42.7326 35.362 41.9769 35.7871L25.1769 45.2371C24.4463 45.648 23.5543 45.648 22.8237 45.2371L6.02367 35.7871C5.26796 35.362 4.80029 34.5623 4.80029 33.6953V14.9026C4.80029 14.0355 5.26796 13.2359 6.02367 12.8108L22.8237 3.36077ZM24.8932 13.4153L26.8616 12.2981L33.1241 15.8535V19.104L36.0004 20.7367V27.8675L33.1241 29.4984V32.7427L26.8616 36.2981L24.8932 35.1806V25.4288L15.4091 20.0437L13.0754 21.3671V27.2219L15.4065 28.5452L17.9199 27.1269L17.9297 27.033C17.986 26.4754 18.4427 26.0552 18.9922 26.0552C19.5851 26.0552 20.0672 26.5434 20.0672 27.1438C20.0672 27.7441 19.5851 28.2324 18.9922 28.2324C18.8347 28.2324 18.678 28.1946 18.5257 28.1197L18.4422 28.0787L15.9518 29.4834V32.1049L21.139 35.05L22.0327 34.5428V33.5551L17.0238 30.7155V30.1451L17.622 29.8075L22.0327 32.3073V25.0589L23.1077 25.6692V35.1806L21.139 36.2981L14.877 32.7427V29.493L12.0004 27.8598V20.7284L14.877 19.0975V15.8535L21.139 12.2981L23.1077 13.4156V23.1674L32.5918 28.5525L34.9254 27.2292V21.3746L32.5944 20.0507L30.081 21.4696L30.0717 21.5635C30.0152 22.1205 29.5584 22.541 29.0086 22.541C28.4155 22.541 27.9337 22.0525 27.9337 21.4524C27.9337 20.8521 28.4155 20.3636 29.0086 20.3636C29.1662 20.3636 29.3232 20.4019 29.4752 20.4765L29.5587 20.5178L32.0494 19.1125V16.4913L26.8616 13.5462L25.9679 14.0532V15.0411L30.977 17.8805V18.4509L30.3786 18.7884L29.662 18.3824L29.6586 18.3842L25.9679 16.289V23.5167L24.8932 22.9061V13.4153ZM21.1389 13.5462L15.9516 16.4913V18.4881L22.0325 15.0408V14.0537L21.1389 13.5462ZM16.5094 19.4203L22.0326 16.2884V22.5565L16.5094 19.4203ZM31.4916 29.1763L25.9679 26.0393V32.308L31.4916 29.1763ZM25.9679 34.5427V33.5555L32.0493 30.108V32.1048L26.8615 35.0499L25.9679 34.5427Z" fill="url(#paint0_linear_1_29277)"></path>
    <defs>
      <linearGradient id="paint0_linear_1_29277" x1="4.80029" y1="3.05255" x2="4.80029" y2="45.5453" gradientUnits="userSpaceOnUse">
        <stop stop-color="#13E5BF"></stop>
        <stop offset="1" stop-color="#01C38D"></stop>
      </linearGradient>
    </defs>
  </symbol>
</svg>