<?xml version="1.0" encoding="utf-8"?>
<!-- Generator: Adobe Illustrator 28.0.0, SVG Export Plug-In . SVG Version: 6.00 Build 0)  -->
<svg version="1.1" id="Layer_1" xmlns="http://www.w3.org/2000/svg" xmlns:xlink="http://www.w3.org/1999/xlink" x="0px" y="0px"
	 viewBox="0 0 43.8 43.9" style="enable-background:new 0 0 43.8 43.9;" xml:space="preserve">
<style type="text/css">
	.st0{fill-rule:evenodd;clip-rule:evenodd;fill:url(#SVGID_1_);}
</style>
<linearGradient id="SVGID_1_" gradientUnits="userSpaceOnUse" x1="21.875" y1="1430.5024" x2="21.875" y2="1386.6428" gradientTransform="matrix(1 0 0 -1 0 1430.5024)">
	<stop  offset="0" style="stop-color:#13E5BF"/>
	<stop  offset="1" style="stop-color:#01C38D"/>
</linearGradient>
<path class="st0" d="M27.1,0l-3.6,2v17.3l2,1.1V7.3l6.7,3.8l0,0l1.3,0.7l1.1-0.6v-1L25.5,5V3.2l1.6-0.9l9.5,5.4v4.8L32,15l-0.2-0.1
	c-0.3-0.1-0.6-0.2-0.9-0.2c-1.1,0-2,0.9-2,2c0,1.1,0.9,2,2,2c1,0,1.8-0.8,1.9-1.8l0-0.2l4.6-2.6l4.2,2.4v10.7l-4.3,2.4l-17.3-9.8V2
	l-3.6-2L5.2,6.5v5.9l-5.2,3v13l5.2,3v5.9l11.4,6.5l3.6-2V24.4l-2-1.1v13.2l-8-4.6l-1.1,0.6v1l9.1,5.2v1.8l-1.6,0.9l-9.5-5.4v-4.8
	l4.5-2.6l0.2,0.1c0.3,0.1,0.6,0.2,0.9,0.2c1.1,0,2-0.9,2-2c0-1.1-0.9-2-2-2c-1,0-1.8,0.8-1.9,1.8l0,0.2l-4.6,2.6L2,27.3V16.6
	l4.3-2.4L23.5,24v17.8l3.6,2l11.4-6.5v-5.9l5.2-3v-13l-5.2-3V6.5L27.1,0z M7.2,7.7l9.5-5.4l1.6,0.9V5L7.2,11.3V7.7z M8.2,13
	l10.1-5.7v11.5L8.2,13z M25.5,25.1l10.1,5.7l-10.1,5.7V25.1z M25.5,40.7v-1.8l11.1-6.3v3.6l-9.5,5.4L25.5,40.7z"/>
</svg>
