<svg width="250" height="46" viewBox="0 0 250 46" fill="none" xmlns="http://www.w3.org/2000/svg">
<path fill-rule="evenodd" clip-rule="evenodd" d="M27.0905 0.443604L23.5016 2.48517V19.8295L25.4615 20.9459V7.73706L32.1893 11.5656L32.1958 11.5625L33.5022 12.3048L34.5928 11.6883V10.6457L25.4615 5.45672V3.65084L27.0905 2.72437L36.5471 8.10641V12.8966L32.0074 15.4654L31.8541 15.3893C31.5778 15.253 31.2915 15.1835 31.0039 15.1835C29.9236 15.1835 29.0444 16.0761 29.0444 17.1728C29.0444 18.2694 29.9236 19.1625 31.0039 19.1625C32.0061 19.1625 32.8395 18.3943 32.9421 17.3759L32.9594 17.2044L37.5411 14.6119L41.7901 17.0303V27.7302L37.5363 30.1486L20.2479 20.3066V2.48649L16.659 0.443604L5.24347 6.94074V12.8698L0 15.8501V28.8822L5.24347 31.8665V37.8061L16.659 44.3032L20.2479 42.2608V24.8791L18.288 23.764V37.0102L10.2478 32.4421L9.1568 33.0586V34.1016L18.288 39.291V41.0951L16.659 42.0225L7.20295 36.6404V31.8494L11.7426 29.2819L11.895 29.3575C12.1727 29.4939 12.4581 29.5633 12.7453 29.5633C13.8259 29.5633 14.7052 28.6712 14.7052 27.5741C14.7052 26.4766 13.8259 25.5848 12.7453 25.5848C11.7439 25.5848 10.9114 26.3526 10.8075 27.3714L10.791 27.5424L6.20848 30.1354L1.95948 27.7165V17.0167L6.21368 14.5987L23.5016 24.4394V42.2608L27.0905 44.3032L38.5065 37.8061V31.8771L43.75 28.8972V15.8646L38.5065 12.8812V6.94074L27.0905 0.443604ZM7.20295 8.10641L16.659 2.72437L18.288 3.65128V5.45585L7.20295 11.7556V8.10641ZM8.2195 13.4594L18.288 7.73618V19.1906L8.2195 13.4594ZM25.4615 25.5554L35.5309 31.2879L25.4615 37.0111V25.5554ZM25.4615 41.0951V39.2915L36.5471 32.9909V36.6404L27.0905 42.0225L25.4615 41.0951Z" fill="url(#paint0_linear_2_6640)"/>
<path fill-rule="evenodd" clip-rule="evenodd" d="M115.96 11.8132C115.112 11.8132 114.372 11.4953 113.736 10.8598C113.101 10.224 112.784 9.48314 112.784 8.63515C112.784 7.7876 113.101 7.045 113.736 6.40956C114.372 5.77412 115.112 5.45618 115.96 5.45618C116.807 5.45618 117.548 5.77412 118.183 6.40956C118.819 7.045 119.136 7.7876 119.136 8.63515C119.136 9.48314 118.819 10.224 118.183 10.8598C117.548 11.4953 116.807 11.8132 115.96 11.8132ZM75.524 12.0824C75.0353 10.8931 74.3347 9.85721 73.4225 8.97703C72.5104 8.09729 71.4269 7.41202 70.1728 6.92298C68.9187 6.43439 67.5263 6.18965 65.995 6.18965C64.3333 6.18965 62.8431 6.43439 61.5242 6.92298C60.204 7.41202 59.0808 8.05628 58.1519 8.85488C57.2235 9.65392 56.5066 10.5905 56.002 11.667C55.4966 12.7425 55.2446 13.8674 55.2446 15.0408C55.2446 16.8343 55.635 18.2767 56.4171 19.3685C57.1988 20.4617 58.1766 21.3494 59.3492 22.0342C60.5217 22.7186 61.7996 23.2566 63.1854 23.6482C64.5695 24.0389 65.8483 24.4388 67.0208 24.8459C68.1938 25.2542 69.1712 25.7185 69.9529 26.2393C70.735 26.7614 71.1263 27.4948 71.1263 28.4402C71.1263 29.4183 70.7024 30.2742 69.8555 31.0076C69.0077 31.7413 67.7215 32.1078 65.995 32.1078C64.3985 32.1078 63.1436 31.6761 62.2323 30.8122C61.3197 29.9488 60.8637 28.8314 60.8637 27.4621H55C55 28.9293 55.252 30.2742 55.7579 31.4962C56.262 32.719 56.9869 33.7791 57.9321 34.6751C58.8768 35.5725 60.0251 36.2644 61.3775 36.7534C62.7289 37.2429 64.2677 37.4868 65.995 37.4868C67.6888 37.4868 69.2276 37.235 70.6125 36.7296C71.997 36.2238 73.1784 35.5549 74.1558 34.7245C75.1331 33.8924 75.8902 32.9562 76.4282 31.912C76.9653 30.8695 77.2341 29.7931 77.2341 28.685C77.2341 26.8267 76.8433 25.319 76.0616 24.1615C75.2794 23.0044 74.3025 22.0669 73.1291 21.3494C71.9565 20.6328 70.6778 20.0622 69.2932 19.6375C67.9083 19.2146 66.63 18.8067 65.4574 18.4152C64.2849 18.024 63.3071 17.5844 62.5254 17.0949C61.7437 16.6059 61.3528 15.9051 61.3528 14.9923C61.3528 14.1448 61.76 13.3621 62.5743 12.6446C63.3881 11.928 64.529 11.5691 65.995 11.5691C67.461 11.5691 68.601 11.9606 69.4157 12.7425C69.9692 13.2743 70.3296 13.945 70.5068 14.748H76.1849C76.0827 13.8083 75.8668 12.918 75.524 12.0824ZM179.187 31.006C178.319 31.8589 177.197 32.2844 175.82 32.2844H168.941V23.4323H175.82C177.197 23.4323 178.319 23.8587 179.187 24.7107C180.055 25.564 180.49 26.6126 180.49 27.8584C180.49 29.1045 180.055 30.1536 179.187 31.006ZM175.329 19.0058H168.941V11.6288H175.329C176.443 11.6288 177.376 11.9975 178.13 12.7357C178.883 13.4734 179.261 14.3337 179.261 15.3171C179.261 16.3014 178.883 17.1617 178.13 17.8994C177.376 18.6372 176.443 19.0058 175.329 19.0058ZM183.929 22.6452C183.209 21.9564 182.389 21.3994 181.472 20.9735C182.127 20.6127 182.733 20.1541 183.29 19.5963C183.749 19.1373 184.175 18.5314 184.568 17.7764C184.961 17.0228 185.158 16.1214 185.158 15.0715C185.158 13.891 184.929 12.7846 184.47 11.7514C184.011 10.7195 183.364 9.80937 182.529 9.02223C181.693 8.23554 180.702 7.61332 179.556 7.15383C178.408 6.69478 177.164 6.46503 175.821 6.46503H163.043V37.4486H176.312C177.787 37.4486 179.138 37.2026 180.366 36.7109C181.595 36.2192 182.66 35.5718 183.561 34.768C184.461 33.9654 185.158 33.0305 185.65 31.9647C186.141 30.8997 186.387 29.7766 186.387 28.5961C186.387 27.1868 186.133 25.9895 185.625 25.0057C185.116 24.0223 184.551 23.2352 183.929 22.6452ZM90.4275 37.2427L94.5815 23.7948L98.735 37.2427H103.621L110.951 14.7479H105.332L100.934 29.1734L96.2916 14.7479H92.8709L88.2287 29.1734L83.831 14.7479H78.211L85.5408 37.2427H90.4275ZM113.15 37.2429H118.77V14.748H113.15V37.2429ZM210.247 30.4695C210.85 29.0848 211.151 27.5926 211.151 25.9954C211.151 24.3977 210.85 22.9064 210.247 21.5208C209.644 20.1357 208.83 18.9213 207.804 17.8775C206.778 16.8346 205.588 16.0113 204.236 15.4076C202.885 14.8048 201.443 14.5028 199.912 14.5028C198.38 14.5028 196.939 14.8048 195.587 15.4076C194.235 16.0113 193.046 16.8346 192.02 17.8775C190.994 18.9213 190.179 20.1357 189.577 21.5208C188.974 22.9064 188.673 24.3977 188.673 25.9954C188.673 27.5926 188.974 29.0848 189.577 30.4695C190.179 31.8555 190.994 33.0699 192.02 34.1128C193.046 35.1566 194.235 35.9799 195.587 36.5822C196.939 37.1859 198.38 37.4871 199.912 37.4871C201.443 37.4871 202.885 37.1859 204.236 36.5822C205.588 35.9799 206.778 35.1566 207.804 34.1128C208.83 33.0699 209.644 31.8555 210.247 30.4695ZM194.292 25.9954C194.292 27.8532 194.83 29.3371 195.905 30.4452C196.98 31.5538 198.315 32.1077 199.912 32.1077C201.508 32.1077 202.844 31.5538 203.919 30.4452C204.994 29.3371 205.532 27.8532 205.532 25.9954C205.532 24.1367 204.994 22.6541 203.919 21.5451C202.844 20.4369 201.508 19.8826 199.912 19.8826C198.315 19.8826 196.98 20.4369 195.905 21.5451C194.83 22.6541 194.292 24.1367 194.292 25.9954ZM225.265 14.5519C225.069 14.5202 224.841 14.503 224.581 14.503C223.733 14.503 222.975 14.6419 222.308 14.9184C221.64 15.1962 221.078 15.5141 220.622 15.8722C220.068 16.2633 219.596 16.7034 219.205 17.1929L218.228 14.7482H214.074V37.2426H219.694V25.2609C219.694 23.7947 220.125 22.6133 220.989 21.7164C221.852 20.8199 222.968 20.3719 224.336 20.3719C224.629 20.3719 224.898 20.3882 225.142 20.4204C225.387 20.4535 225.59 20.4857 225.753 20.5183C225.949 20.5509 226.127 20.584 226.291 20.6157V14.7482L226.082 14.706L225.802 14.6494C225.638 14.6176 225.46 14.585 225.265 14.5519ZM156.592 25.3595C157.439 25.8812 158.147 26.5572 158.717 27.3889C159.287 28.2201 159.572 29.3049 159.572 30.6406C159.572 31.5539 159.377 32.4257 158.986 33.2569C158.595 34.0881 158.041 34.8144 157.325 35.4331C156.608 36.0531 155.736 36.5501 154.71 36.9249C153.684 37.2993 152.536 37.4867 151.265 37.4867C148.333 37.4867 146.11 36.8195 144.595 35.4825C143.74 34.7276 143.097 33.8275 142.651 32.7921L147.356 30.1525C147.486 30.9026 147.845 31.5376 148.431 32.0592C149.017 32.5805 149.799 32.8411 150.777 32.8411C151.753 32.8411 152.527 32.5893 153.097 32.0835C153.667 31.5781 153.953 31.0163 153.953 30.3963C153.953 29.8751 153.667 29.4672 153.097 29.1735C152.527 28.8803 151.819 28.6113 150.972 28.3674C150.124 28.1222 149.204 27.8704 148.211 27.6089C147.217 27.3483 146.297 26.9656 145.45 26.4598C144.603 25.9544 143.894 25.3031 143.324 24.5036C142.754 23.705 142.47 22.6542 142.47 21.3493C142.47 20.4365 142.656 19.5647 143.031 18.7331C143.405 17.9018 143.951 17.1769 144.668 16.5573C145.384 15.9377 146.232 15.4403 147.21 15.0659C148.187 14.6911 149.293 14.5028 150.532 14.5028C153.236 14.5028 155.313 15.1559 156.762 16.4594C157.52 17.1407 158.111 17.9133 158.543 18.7727L153.953 21.3489C153.822 20.8603 153.472 20.3713 152.903 19.8827C152.332 19.3932 151.623 19.1485 150.777 19.1485C149.929 19.1485 149.27 19.361 148.798 19.7848C148.325 20.2085 148.089 20.7302 148.089 21.3493C148.089 21.871 148.374 22.2785 148.944 22.5722C149.513 22.865 150.222 23.1344 151.07 23.3791C151.916 23.6234 152.836 23.8849 153.831 24.1614C154.824 24.4388 155.744 24.8383 156.592 25.3595ZM138.927 27.3889C138.356 26.5572 137.648 25.8812 136.801 25.3595C135.954 24.8383 135.033 24.4388 134.04 24.1614C133.046 23.8849 132.125 23.6234 131.279 23.3791C130.431 23.1344 129.722 22.865 129.153 22.5722C128.583 22.2785 128.298 21.871 128.298 21.3493C128.298 20.7302 128.534 20.2085 129.007 19.7848C129.479 19.361 130.138 19.1485 130.986 19.1485C131.832 19.1485 132.541 19.3932 133.112 19.8827C133.681 20.3713 134.031 20.8603 134.162 21.3489L138.753 18.7727C138.32 17.9133 137.729 17.1407 136.972 16.4594C135.522 15.1559 133.445 14.5028 130.742 14.5028C129.503 14.5028 128.396 14.6911 127.419 15.0659C126.441 15.4403 125.594 15.9377 124.878 16.5573C124.161 17.1769 123.615 17.9018 123.24 18.7331C122.866 19.5647 122.679 20.4365 122.679 21.3493C122.679 22.6542 122.963 23.705 123.534 24.5036C124.103 25.3031 124.812 25.9544 125.66 26.4598C126.506 26.9656 127.426 27.3483 128.42 27.6089C129.414 27.8704 130.334 28.1222 131.181 28.3674C132.028 28.6113 132.736 28.8803 133.307 29.1735C133.876 29.4672 134.162 29.8751 134.162 30.3963C134.162 31.0163 133.876 31.5781 133.307 32.0835C132.736 32.5893 131.963 32.8411 130.986 32.8411C130.008 32.8411 129.227 32.5805 128.64 32.0592C128.054 31.5376 127.695 30.9026 127.565 30.1525L122.861 32.7921C123.306 33.8275 123.949 34.7276 124.804 35.4825C126.319 36.8195 128.543 37.4867 131.474 37.4867C132.745 37.4867 133.893 37.2993 134.919 36.9249C135.946 36.5501 136.817 36.0531 137.534 35.4331C138.25 34.8144 138.805 34.0881 139.195 33.2569C139.586 32.4257 139.782 31.5539 139.782 30.6406C139.782 29.3049 139.496 28.2201 138.927 27.3889ZM244.869 16.9479L245.846 14.7479H250V35.7757C250 38.7099 249.063 41.0731 247.19 42.8665C245.316 44.659 242.67 45.5564 239.249 45.5564C237.164 45.5564 235.478 45.1807 234.191 44.4315C232.904 43.681 231.887 42.8334 231.138 41.888C230.851 41.5246 230.598 41.1383 230.36 40.7414L234.851 38.2213C235.079 38.6442 235.389 39.019 235.779 39.3458C236.138 39.6055 236.593 39.8507 237.148 40.0791C237.702 40.3066 238.402 40.4213 239.249 40.4213C240.845 40.4213 242.1 39.9891 243.012 39.1257C243.923 38.2619 244.38 37.1449 244.38 35.7757V34.0638C243.923 34.5211 243.403 34.9286 242.817 35.2862C242.295 35.6129 241.676 35.8978 240.96 36.1425C240.243 36.3873 239.428 36.5094 238.516 36.5094C237.115 36.5094 235.787 36.2325 234.534 35.6778C233.279 35.1239 232.188 34.3575 231.259 33.3794C230.331 32.4013 229.598 31.2442 229.06 29.9072C228.523 28.5706 228.255 27.1044 228.255 25.5063C228.255 23.9095 228.523 22.4424 229.06 21.105C229.598 19.7684 230.331 18.6104 231.259 17.6327C232.188 16.6551 233.279 15.8891 234.534 15.3344C235.787 14.7805 237.115 14.5032 238.516 14.5032C239.494 14.5032 240.373 14.6337 241.155 14.8943C241.937 15.1558 242.604 15.4323 243.159 15.7255C243.777 16.0854 244.347 16.4915 244.869 16.9479ZM243.012 29.4918C243.5 28.986 243.891 28.3916 244.185 27.7068C244.478 27.0224 244.625 26.2881 244.625 25.5063C244.625 24.7231 244.478 23.9898 244.185 23.3058C243.891 22.621 243.5 22.0266 243.012 21.5204C242.523 21.0154 241.953 20.6159 241.301 20.3227C240.65 20.029 239.966 19.8826 239.249 19.8826C238.5 19.8826 237.799 20.029 237.148 20.3227C236.496 20.6159 235.927 21.0154 235.438 21.5204C234.949 22.0266 234.566 22.621 234.289 23.3058C234.012 23.9898 233.874 24.7231 233.874 25.5063C233.874 26.2881 234.012 27.0224 234.289 27.7068C234.566 28.3916 234.949 28.986 235.438 29.4918C235.927 29.9972 236.496 30.3967 237.148 30.6899C237.799 30.9836 238.5 31.13 239.249 31.13C239.966 31.13 240.65 30.9836 241.301 30.6899C241.953 30.3967 242.523 29.9972 243.012 29.4918Z" fill="white"/>
<defs>
<linearGradient id="paint0_linear_2_6640" x1="0" y1="0.443604" x2="0" y2="44.3032" gradientUnits="userSpaceOnUse">
<stop stop-color="#13E5BF"/>
<stop offset="1" stop-color="#01C38D"/>
</linearGradient>
</defs>
</svg>
